<?xml version="1.0" encoding="utf-8"?>
<!-- Generator: Adobe Illustrator 27.5.0, SVG Export Plug-In . SVG Version: 6.00 Build 0)  -->
<svg version="1.1" xmlns="http://www.w3.org/2000/svg" xmlns:xlink="http://www.w3.org/1999/xlink" x="0px" y="0px"
	 viewBox="0 0 620 500" style="enable-background:new 0 0 650 500;" xml:space="preserve">
<g id="background">
	<g>
		<path style="fill:#92E3A9;" d="M610.312,190.093c-19.076-62.347-68.119-112.26-126.163-138.572
			c-55.37-25.1-125.371-37.5-177.836,1.129c-34.546,25.436-54.113,66.197-85.742,94.727c-15.721,14.181-32.933,18.789-51.637,27.271
			c-45.588,20.673-83.74,60.541-86.879,113.135c-5.248,87.934,64.458,148.758,142.236,168.705
			c102.783,26.36,179.612,26.36,250.21-2.108c36.667-14.786,73.979-33.493,100.412-64.113
			c39.974-46.306,51.021-112.08,41.93-171.552C615.349,208.934,613.153,199.38,610.312,190.093z"/>
		<path style="opacity:0.8;fill:#FFFFFF;" d="M610.312,190.093c-19.076-62.347-68.119-112.26-126.163-138.572
			c-55.37-25.1-125.371-37.5-177.836,1.129c-34.546,25.436-54.113,66.197-85.742,94.727c-15.721,14.181-32.933,18.789-51.637,27.271
			c-45.588,20.673-83.74,60.541-86.879,113.135c-5.248,87.934,64.458,148.758,142.236,168.705
			c102.783,26.36,179.612,26.36,250.21-2.108c36.667-14.786,73.979-33.493,100.412-64.113
			c39.974-46.306,51.021-112.08,41.93-171.552C615.349,208.934,613.153,199.38,610.312,190.093z"/>
	</g>
</g>
<g id="Pictures">
	<g>
		<g>
			<rect x="181.092" y="40.003" style="fill:none;stroke:#A3A3A3;stroke-miterlimit:10;" width="91.724" height="114.292"/>
			<rect x="184.843" y="44.676" style="fill:none;stroke:#A3A3A3;stroke-miterlimit:10;" width="84.223" height="104.944"/>
			<rect x="210.939" y="77.193" style="fill:#D6D6D6;" width="32.031" height="39.911"/>
		</g>
		<g>
			<rect x="278.615" y="76.129" style="fill:none;stroke:#A3A3A3;stroke-miterlimit:10;" width="62.204" height="77.508"/>
			<rect x="281.083" y="79.205" style="fill:none;stroke:#A3A3A3;stroke-miterlimit:10;" width="57.268" height="71.357"/>
			<rect x="298.856" y="101.35" style="fill:#D6D6D6;" width="21.722" height="27.066"/>
		</g>
		<g>
			
				<rect x="160.382" y="162.833" transform="matrix(-1.836970e-16 1 -1 -1.836970e-16 393.0718 10.103)" style="fill:none;stroke:#A3A3A3;stroke-miterlimit:10;" width="62.204" height="77.508"/>
			
				<rect x="163.309" y="166.48" transform="matrix(-1.836970e-16 1 -1 -1.836970e-16 393.0718 10.103)" style="fill:none;stroke:#A3A3A3;stroke-miterlimit:10;" width="56.351" height="70.216"/>
			
				<rect x="180.623" y="188.054" transform="matrix(-1.836970e-16 1 -1 -1.836970e-16 393.0718 10.103)" style="fill:#D6D6D6;" width="21.722" height="27.066"/>
		</g>
		<g>
			<rect x="237.464" y="170.018" style="fill:none;stroke:#A3A3A3;stroke-miterlimit:10;" width="79.399" height="98.934"/>
			<rect x="240.664" y="174.006" style="fill:none;stroke:#A3A3A3;stroke-miterlimit:10;" width="72.999" height="90.959"/>
			<rect x="263.3" y="202.211" style="fill:#D6D6D6;" width="27.727" height="34.548"/>
		</g>
	</g>
</g>
<g id="Plants">
	<g>
		<g>
			
				<line style="fill:none;stroke:#263238;stroke-width:2;stroke-miterlimit:10;" x1="80.586" y1="254.675" x2="100.544" y2="445.909"/>
			<g>
				<g>
					
						<line style="fill:none;stroke:#263238;stroke-width:2;stroke-miterlimit:10;" x1="96.866" y1="408.551" x2="88.28" y2="399.755"/>
					<path style="fill:#92E3A9;stroke:#263238;stroke-miterlimit:10;" d="M91.029,402.619c0,0,0.259-4.227-3.601-7.674
						c-2.322-2.074-14.544-7.216-15.704-2.911C70.462,396.715,82.972,405.91,91.029,402.619z"/>
					
						<line style="fill:none;stroke:#263238;stroke-width:0.5;stroke-miterlimit:10;" x1="91.029" y1="402.619" x2="79.393" y2="395.368"/>
				</g>
				<g>
					
						<line style="fill:none;stroke:#263238;stroke-width:2;stroke-miterlimit:10;" x1="98.515" y1="430.197" x2="90.55" y2="421.504"/>
					<path style="fill:#92E3A9;stroke:#263238;stroke-miterlimit:10;" d="M93.299,424.367c0,0,0.259-4.227-3.601-7.674
						c-2.322-2.074-14.545-7.216-15.704-2.911C72.732,418.464,85.242,427.659,93.299,424.367z"/>
					
						<line style="fill:none;stroke:#263238;stroke-width:0.5;stroke-miterlimit:10;" x1="93.299" y1="424.367" x2="81.663" y2="417.117"/>
				</g>
				<g>
					
						<line style="fill:none;stroke:#263238;stroke-width:2;stroke-miterlimit:10;" x1="91.376" y1="355.416" x2="82.329" y2="345.86"/>
					<path style="fill:#92E3A9;stroke:#263238;stroke-miterlimit:10;" d="M85.49,349.548c0,0,0.259-4.227-3.601-7.674
						c-2.322-2.074-14.545-7.216-15.704-2.911C64.923,343.644,77.433,352.838,85.49,349.548z"/>
					
						<line style="fill:none;stroke:#263238;stroke-width:0.5;stroke-miterlimit:10;" x1="85.49" y1="349.548" x2="73.854" y2="342.297"/>
				</g>
				<g>
					
						<line style="fill:none;stroke:#263238;stroke-width:2;stroke-miterlimit:10;" x1="93.155" y1="377.216" x2="85.011" y2="368.433"/>
					<path style="fill:#92E3A9;stroke:#263238;stroke-miterlimit:10;" d="M87.76,371.296c0,0,0.259-4.227-3.601-7.674
						c-2.322-2.074-14.544-7.216-15.704-2.911C67.193,365.392,79.703,374.587,87.76,371.296z"/>
					
						<line style="fill:none;stroke:#263238;stroke-width:0.5;stroke-miterlimit:10;" x1="87.76" y1="371.296" x2="76.124" y2="364.046"/>
				</g>
				<g>
					
						<line style="fill:none;stroke:#263238;stroke-width:2;stroke-miterlimit:10;" x1="87.795" y1="320.112" x2="79.054" y2="311.355"/>
					<path style="fill:#92E3A9;stroke:#263238;stroke-miterlimit:10;" d="M81.803,314.218c0,0,0.259-4.227-3.601-7.674
						c-2.322-2.074-14.545-7.216-15.704-2.911C61.236,308.314,73.746,317.509,81.803,314.218z"/>
					
						<line style="fill:none;stroke:#263238;stroke-width:0.5;stroke-miterlimit:10;" x1="81.803" y1="314.218" x2="70.167" y2="306.967"/>
				</g>
				<g>
					
						<line style="fill:none;stroke:#263238;stroke-width:2;stroke-miterlimit:10;" x1="83.672" y1="284.654" x2="75.351" y2="275.871"/>
					<path style="fill:#92E3A9;stroke:#263238;stroke-miterlimit:10;" d="M78.1,278.735c0,0,0.259-4.227-3.601-7.675
						c-2.322-2.074-14.544-7.216-15.704-2.911C57.533,272.831,70.043,282.025,78.1,278.735z"/>
					
						<line style="fill:none;stroke:#263238;stroke-width:0.5;stroke-miterlimit:10;" x1="78.1" y1="278.735" x2="66.464" y2="271.484"/>
				</g>
				<g>
					
						<line style="fill:none;stroke:#263238;stroke-width:2;stroke-miterlimit:10;" x1="95.807" y1="396.444" x2="102.686" y2="385.225"/>
					<path style="fill:#92E3A9;stroke:#263238;stroke-miterlimit:10;" d="M100.588,388.594c0,0-1.126-4.083,1.939-8.253
						c1.844-2.509,12.741-10.064,14.765-6.091C119.492,378.571,109.15,390.151,100.588,388.594z"/>
					
						<line style="fill:none;stroke:#263238;stroke-width:0.5;stroke-miterlimit:10;" x1="100.588" y1="388.594" x2="111.065" y2="378.58"/>
				</g>
				<g>
					
						<line style="fill:none;stroke:#263238;stroke-width:2;stroke-miterlimit:10;" x1="89.834" y1="339.211" x2="96.713" y2="327.993"/>
					<path style="fill:#92E3A9;stroke:#263238;stroke-miterlimit:10;" d="M94.615,331.362c0,0-1.126-4.083,1.939-8.252
						c1.844-2.509,12.741-10.064,14.765-6.091C113.519,321.339,103.178,332.918,94.615,331.362z"/>
					
						<line style="fill:none;stroke:#263238;stroke-width:0.5;stroke-miterlimit:10;" x1="94.615" y1="331.362" x2="105.092" y2="321.348"/>
				</g>
				<g>
					
						<line style="fill:none;stroke:#263238;stroke-width:2;stroke-miterlimit:10;" x1="87.209" y1="314.06" x2="94.089" y2="302.841"/>
					<path style="fill:#92E3A9;stroke:#263238;stroke-miterlimit:10;" d="M91.99,306.21c0,0-1.126-4.083,1.939-8.253
						c1.844-2.509,12.741-10.063,14.765-6.091C110.895,296.187,100.553,307.767,91.99,306.21z"/>
					
						<line style="fill:none;stroke:#263238;stroke-width:0.5;stroke-miterlimit:10;" x1="91.99" y1="306.21" x2="102.467" y2="296.196"/>
				</g>
				<g>
					
						<line style="fill:none;stroke:#263238;stroke-width:2;stroke-miterlimit:10;" x1="83.361" y1="277.187" x2="90.24" y2="265.969"/>
					<path style="fill:#92E3A9;stroke:#263238;stroke-miterlimit:10;" d="M88.142,269.338c0,0-1.126-4.083,1.939-8.253
						c1.844-2.509,12.741-10.063,14.765-6.091C107.047,259.315,96.705,270.895,88.142,269.338z"/>
					
						<line style="fill:none;stroke:#263238;stroke-width:0.5;stroke-miterlimit:10;" x1="88.142" y1="269.338" x2="98.619" y2="259.324"/>
					<path style="fill:#92E3A9;stroke:#263238;stroke-miterlimit:10;" d="M80.419,253.613c0,0-1.126-4.083,1.939-8.253
						c1.844-2.509,12.741-10.063,14.765-6.091C99.323,243.59,88.981,255.169,80.419,253.613z"/>
					
						<line style="fill:none;stroke:#263238;stroke-width:0.5;stroke-miterlimit:10;" x1="80.419" y1="253.613" x2="90.896" y2="243.599"/>
					<path style="fill:#92E3A9;stroke:#263238;stroke-miterlimit:10;" d="M81.026,254.045c0,0-4.178,0.692-8.004-2.794
						c-2.302-2.097-8.672-13.726-4.509-15.322C73.04,234.193,83.471,245.693,81.026,254.045z"/>
					
						<line style="fill:none;stroke:#263238;stroke-width:0.5;stroke-miterlimit:10;" x1="81.026" y1="254.045" x2="72.165" y2="242.575"/>
				</g>
			</g>
		</g>
		<g>
			
				<line style="fill:none;stroke:#263238;stroke-width:2;stroke-miterlimit:10;" x1="133.225" y1="281.405" x2="116.952" y2="445.909"/>
			<g>
				<g>
					
						<line style="fill:none;stroke:#263238;stroke-width:2;stroke-miterlimit:10;" x1="117.768" y1="436.176" x2="110.882" y2="424.962"/>
					<path style="fill:#92E3A9;stroke:#263238;stroke-miterlimit:10;" d="M112.982,428.33c0,0,1.124-4.083-1.944-8.251
						c-1.846-2.508-12.747-10.056-14.768-6.082C94.072,418.318,104.42,429.891,112.982,428.33z"/>
					
						<line style="fill:none;stroke:#263238;stroke-width:0.5;stroke-miterlimit:10;" x1="112.982" y1="428.33" x2="103.089" y2="418.839"/>
				</g>
				<g>
					
						<line style="fill:none;stroke:#263238;stroke-width:2;stroke-miterlimit:10;" x1="123.275" y1="383.102" x2="116.389" y2="371.887"/>
					<path style="fill:#92E3A9;stroke:#263238;stroke-miterlimit:10;" d="M118.489,375.255c0,0,1.124-4.083-1.944-8.251
						c-1.846-2.508-12.747-10.056-14.768-6.082C99.579,365.243,109.928,376.817,118.489,375.255z"/>
					
						<line style="fill:none;stroke:#263238;stroke-width:0.5;stroke-miterlimit:10;" x1="118.489" y1="375.255" x2="108.596" y2="365.764"/>
				</g>
				<g>
					
						<line style="fill:none;stroke:#263238;stroke-width:2;stroke-miterlimit:10;" x1="121.018" y1="404.852" x2="114.132" y2="393.638"/>
					<path style="fill:#92E3A9;stroke:#263238;stroke-miterlimit:10;" d="M116.232,397.005c0,0,1.124-4.083-1.944-8.251
						c-1.846-2.508-12.747-10.056-14.768-6.082C97.322,386.993,107.671,398.567,116.232,397.005z"/>
					
						<line style="fill:none;stroke:#263238;stroke-width:0.5;stroke-miterlimit:10;" x1="116.232" y1="397.005" x2="106.339" y2="387.514"/>
				</g>
				<g>
					
						<line style="fill:none;stroke:#263238;stroke-width:2;stroke-miterlimit:10;" x1="126.941" y1="347.77" x2="120.055" y2="336.556"/>
					<path style="fill:#92E3A9;stroke:#263238;stroke-miterlimit:10;" d="M122.156,339.924c0,0,1.124-4.083-1.944-8.251
						c-1.846-2.508-12.747-10.056-14.768-6.082C103.245,329.912,113.594,341.485,122.156,339.924z"/>
					
						<line style="fill:none;stroke:#263238;stroke-width:0.5;stroke-miterlimit:10;" x1="122.156" y1="339.924" x2="112.262" y2="330.432"/>
				</g>
				<g>
					
						<line style="fill:none;stroke:#263238;stroke-width:2;stroke-miterlimit:10;" x1="130.624" y1="312.284" x2="123.738" y2="301.07"/>
					<path style="fill:#92E3A9;stroke:#263238;stroke-miterlimit:10;" d="M125.838,304.438c0,0,1.124-4.083-1.944-8.251
						c-1.845-2.508-12.747-10.056-14.768-6.082C106.927,294.426,117.276,305.999,125.838,304.438z"/>
					
						<line style="fill:none;stroke:#263238;stroke-width:0.5;stroke-miterlimit:10;" x1="125.838" y1="304.438" x2="115.945" y2="294.947"/>
				</g>
				<g>
					
						<line style="fill:none;stroke:#263238;stroke-width:2;stroke-miterlimit:10;" x1="118.929" y1="423.27" x2="127.971" y2="413.709"/>
					<path style="fill:#92E3A9;stroke:#263238;stroke-miterlimit:10;" d="M125.224,416.574c0,0-0.261-4.227,3.596-7.677
						c2.321-2.076,14.54-7.224,15.702-2.92C145.787,410.658,133.283,419.86,125.224,416.574z"/>
					
						<line style="fill:none;stroke:#263238;stroke-width:0.5;stroke-miterlimit:10;" x1="125.224" y1="416.574" x2="137.539" y2="408.931"/>
				</g>
				<g>
					
						<line style="fill:none;stroke:#263238;stroke-width:2;stroke-miterlimit:10;" x1="124.868" y1="366.034" x2="133.91" y2="356.473"/>
					<path style="fill:#92E3A9;stroke:#263238;stroke-miterlimit:10;" d="M131.163,359.338c0,0-0.261-4.227,3.596-7.677
						c2.321-2.075,14.54-7.224,15.702-2.92C151.726,353.422,139.222,362.624,131.163,359.338z"/>
					
						<line style="fill:none;stroke:#263238;stroke-width:0.5;stroke-miterlimit:10;" x1="131.163" y1="359.338" x2="143.478" y2="351.696"/>
				</g>
				<g>
					
						<line style="fill:none;stroke:#263238;stroke-width:2;stroke-miterlimit:10;" x1="127.478" y1="340.882" x2="136.52" y2="331.32"/>
					<path style="fill:#92E3A9;stroke:#263238;stroke-miterlimit:10;" d="M133.773,334.185c0,0-0.261-4.227,3.596-7.676
						c2.321-2.076,14.54-7.224,15.703-2.921C154.336,328.269,141.832,337.471,133.773,334.185z"/>
					
						<line style="fill:none;stroke:#263238;stroke-width:0.5;stroke-miterlimit:10;" x1="133.773" y1="334.185" x2="146.088" y2="326.543"/>
				</g>
				<g>
					
						<line style="fill:none;stroke:#263238;stroke-width:2;stroke-miterlimit:10;" x1="131.305" y1="304.007" x2="140.347" y2="294.446"/>
					<path style="fill:#92E3A9;stroke:#263238;stroke-miterlimit:10;" d="M137.599,297.311c0,0-0.261-4.227,3.597-7.677
						c2.321-2.076,14.54-7.224,15.702-2.921C158.163,291.395,145.658,300.597,137.599,297.311z"/>
					
						<line style="fill:none;stroke:#263238;stroke-width:0.5;stroke-miterlimit:10;" x1="137.599" y1="297.311" x2="149.914" y2="289.668"/>
					<path style="fill:#92E3A9;stroke:#263238;stroke-miterlimit:10;" d="M133.279,280.332c0,0-0.261-4.227,3.596-7.676
						c2.321-2.076,14.54-7.224,15.703-2.921C153.842,274.416,141.338,283.618,133.279,280.332z"/>
					
						<line style="fill:none;stroke:#263238;stroke-width:0.5;stroke-miterlimit:10;" x1="133.279" y1="280.332" x2="145.594" y2="272.69"/>
					<path style="fill:#92E3A9;stroke:#263238;stroke-miterlimit:10;" d="M133.785,280.88c0,0-4.231-0.183-7.257-4.382
						c-1.821-2.526-5.66-15.218-1.258-15.922C130.058,259.809,137.898,273.21,133.785,280.88z"/>
					
						<line style="fill:none;stroke:#263238;stroke-width:0.5;stroke-miterlimit:10;" x1="133.785" y1="280.88" x2="127.476" y2="267.831"/>
				</g>
			</g>
		</g>
		<g>
			
				<line style="fill:none;stroke:#263238;stroke-width:2;stroke-miterlimit:10;" x1="110.483" y1="204.066" x2="110.483" y2="445.909"/>
			<g>
				<g>
					
						<line style="fill:none;stroke:#263238;stroke-width:2;stroke-miterlimit:10;" x1="110.676" y1="409.546" x2="102.669" y2="399.103"/>
					<path style="fill:#92E3A9;stroke:#263238;stroke-miterlimit:10;" d="M105.106,402.236c0,0,0.696-4.177-2.785-8.007
						c-2.095-2.304-13.717-8.686-15.317-4.526C85.263,394.229,96.751,404.672,105.106,402.236z"/>
					
						<line style="fill:none;stroke:#263238;stroke-width:0.5;stroke-miterlimit:10;" x1="105.106" y1="402.236" x2="94.286" y2="393.816"/>
				</g>
				<g>
					
						<line style="fill:none;stroke:#263238;stroke-width:2;stroke-miterlimit:10;" x1="110.676" y1="364.097" x2="102.669" y2="353.654"/>
					<path style="fill:#92E3A9;stroke:#263238;stroke-miterlimit:10;" d="M105.106,356.787c0,0,0.696-4.177-2.785-8.007
						c-2.095-2.304-13.717-8.686-15.317-4.525C85.263,348.78,96.751,359.224,105.106,356.787z"/>
					
						<line style="fill:none;stroke:#263238;stroke-width:0.5;stroke-miterlimit:10;" x1="105.106" y1="356.787" x2="94.286" y2="348.367"/>
				</g>
				<g>
					
						<line style="fill:none;stroke:#263238;stroke-width:2;stroke-miterlimit:10;" x1="110.676" y1="310.738" x2="102.669" y2="300.294"/>
					<path style="fill:#92E3A9;stroke:#263238;stroke-miterlimit:10;" d="M105.106,303.427c0,0,0.696-4.177-2.785-8.007
						c-2.095-2.304-13.717-8.686-15.317-4.526C85.263,295.421,96.751,305.864,105.106,303.427z"/>
					
						<line style="fill:none;stroke:#263238;stroke-width:0.5;stroke-miterlimit:10;" x1="105.106" y1="303.427" x2="94.286" y2="295.008"/>
				</g>
				<g>
					
						<line style="fill:none;stroke:#263238;stroke-width:2;stroke-miterlimit:10;" x1="110.676" y1="275.217" x2="102.669" y2="264.773"/>
					<path style="fill:#92E3A9;stroke:#263238;stroke-miterlimit:10;" d="M105.106,267.906c0,0,0.696-4.177-2.785-8.007
						c-2.095-2.304-13.717-8.687-15.317-4.526C85.263,259.899,96.751,270.343,105.106,267.906z"/>
					
						<line style="fill:none;stroke:#263238;stroke-width:0.5;stroke-miterlimit:10;" x1="105.106" y1="267.906" x2="94.286" y2="259.487"/>
				</g>
				<g>
					
						<line style="fill:none;stroke:#263238;stroke-width:2;stroke-miterlimit:10;" x1="110.676" y1="239.54" x2="102.669" y2="229.097"/>
					<path style="fill:#92E3A9;stroke:#263238;stroke-miterlimit:10;" d="M105.106,232.23c0,0,0.696-4.177-2.785-8.007
						c-2.095-2.304-13.717-8.686-15.317-4.526C85.263,224.223,96.751,234.667,105.106,232.23z"/>
					
						<line style="fill:none;stroke:#263238;stroke-width:0.5;stroke-miterlimit:10;" x1="105.106" y1="232.23" x2="94.286" y2="223.81"/>
				</g>
				<g>
					
						<line style="fill:none;stroke:#263238;stroke-width:2;stroke-miterlimit:10;" x1="110.499" y1="423.424" x2="118.506" y2="412.981"/>
					<path style="fill:#92E3A9;stroke:#263238;stroke-miterlimit:10;" d="M116.069,416.114c0,0-0.696-4.177,2.785-8.007
						c2.094-2.304,13.717-8.686,15.317-4.525C135.912,408.107,124.424,418.551,116.069,416.114z"/>
					
						<line style="fill:none;stroke:#263238;stroke-width:0.5;stroke-miterlimit:10;" x1="116.069" y1="416.114" x2="127.529" y2="407.241"/>
				</g>
				<g>
					
						<line style="fill:none;stroke:#263238;stroke-width:2;stroke-miterlimit:10;" x1="110.499" y1="351.141" x2="118.506" y2="340.697"/>
					<path style="fill:#92E3A9;stroke:#263238;stroke-miterlimit:10;" d="M116.069,343.83c0,0-0.696-4.178,2.785-8.007
						c2.094-2.304,13.717-8.687,15.317-4.526C135.912,335.824,124.424,346.267,116.069,343.83z"/>
					
						<line style="fill:none;stroke:#263238;stroke-width:0.5;stroke-miterlimit:10;" x1="116.069" y1="343.83" x2="127.529" y2="334.958"/>
				</g>
				<g>
					
						<line style="fill:none;stroke:#263238;stroke-width:2;stroke-miterlimit:10;" x1="110.499" y1="315.465" x2="118.506" y2="305.021"/>
					<path style="fill:#92E3A9;stroke:#263238;stroke-miterlimit:10;" d="M116.069,308.154c0,0-0.696-4.177,2.785-8.007
						c2.094-2.304,13.717-8.686,15.317-4.525C135.912,300.147,124.424,310.591,116.069,308.154z"/>
					
						<line style="fill:none;stroke:#263238;stroke-width:0.5;stroke-miterlimit:10;" x1="116.069" y1="308.154" x2="127.529" y2="299.281"/>
				</g>
				<g>
					
						<line style="fill:none;stroke:#263238;stroke-width:2;stroke-miterlimit:10;" x1="110.499" y1="268.31" x2="118.506" y2="257.866"/>
					<path style="fill:#92E3A9;stroke:#263238;stroke-miterlimit:10;" d="M116.069,260.999c0,0-0.696-4.177,2.785-8.007
						c2.094-2.304,13.717-8.687,15.317-4.526C135.912,252.992,124.424,263.436,116.069,260.999z"/>
					
						<line style="fill:none;stroke:#263238;stroke-width:0.5;stroke-miterlimit:10;" x1="116.069" y1="260.999" x2="127.529" y2="252.127"/>
				</g>
				<g>
					
						<line style="fill:none;stroke:#263238;stroke-width:2;stroke-miterlimit:10;" x1="110.499" y1="231.237" x2="118.506" y2="220.794"/>
					<path style="fill:#92E3A9;stroke:#263238;stroke-miterlimit:10;" d="M116.069,223.927c0,0-0.696-4.178,2.785-8.007
						c2.094-2.304,13.717-8.687,15.317-4.526C135.912,215.92,124.424,226.363,116.069,223.927z"/>
					
						<line style="fill:none;stroke:#263238;stroke-width:0.5;stroke-miterlimit:10;" x1="116.069" y1="223.927" x2="127.529" y2="215.054"/>
					<path style="fill:#92E3A9;stroke:#263238;stroke-miterlimit:10;" d="M110.02,207.485c0,0-0.696-4.178,2.785-8.007
						c2.094-2.304,13.717-8.686,15.317-4.525C129.863,199.478,118.375,209.921,110.02,207.485z"/>
					
						<line style="fill:none;stroke:#263238;stroke-width:0.5;stroke-miterlimit:10;" x1="110.02" y1="207.485" x2="121.48" y2="198.612"/>
					<path style="fill:#92E3A9;stroke:#263238;stroke-miterlimit:10;" d="M110.579,207.977c0,0-4.227,0.254-7.671-3.609
						c-2.072-2.325-7.2-14.552-2.894-15.707C104.697,187.404,113.878,199.924,110.579,207.977z"/>
					
						<line style="fill:none;stroke:#263238;stroke-width:0.5;stroke-miterlimit:10;" x1="110.579" y1="207.977" x2="102.957" y2="195.65"/>
				</g>
			</g>
		</g>
	</g>
</g>
<g id="Characters">
	<g>
		<g>
			<g>
				<path style="fill:#263238;stroke:#263238;stroke-linecap:round;stroke-linejoin:round;stroke-miterlimit:10;" d="
					M249.11,446.047c-3.554-10.902-12.226-37.826-11.535-38.863c0.868-1.302,0.868-8.243,0.868-8.243s-28.199,3.471-48.154-13.449
					c-19.956-16.919-43.816-36.875-43.816-36.875s-3.471,10.412-6.941,21.257c-2.935,9.172-8.662,60.537-10.36,76.171H249.11z"/>
				<g>
					<path style="fill:none;stroke:#6E6E6E;stroke-linecap:round;stroke-linejoin:round;stroke-miterlimit:10;" d="M179.319,415.83
						c5.058,4.675,13.816,12.931,20.247,19.857"/>
					<path style="fill:none;stroke:#6E6E6E;stroke-linecap:round;stroke-linejoin:round;stroke-miterlimit:10;" d="M175.257,412.114
						c0,0,0.575,0.518,1.572,1.428"/>
				</g>
			</g>
			<g>
				<path style="fill:#7D7D7D;stroke:#263238;stroke-linecap:round;stroke-linejoin:round;stroke-miterlimit:10;" d="
					M273.716,228.986c0,0-29.657,12.449-43.204,21.602c-13.547,9.153-41.007,35.881-49.062,46.499
					c-8.055,10.618-27.826,32.952-32.952,39.177c-5.126,6.224-8.421,9.886-6.957,20.138c1.464,10.252,10.252,26.728,19.771,35.149
					c9.52,8.421,28.543,18.942,53.09,17.941c14.272-0.582,22.7-3.661,30.389-11.35c7.689-7.689,19.405-27.826,29.657-37.712
					c10.252-9.886,27.826-30.023,27.826-30.023s46.865,16.842,51.259,16.842c4.394,0,26.362-12.449,26.728-16.11
					c0.366-3.661-48.33-35.881-52.724-43.936c-4.394-8.055-13.547-22.701-13.547-22.701S292.023,232.647,273.716,228.986z"/>
				<path style="fill:#263238;stroke:#263238;stroke-linecap:round;stroke-linejoin:round;stroke-miterlimit:10;" d="
					M327.538,287.202c-4.394-8.055-13.547-22.701-13.547-22.701s-6.38-9.245-15.125-18.346c-2.047,0.401-3.777,1.042-5.061,1.989
					c-11.354,8.366-5.976,29.282-4.781,46.014c1.195,16.732,8.964,29.282,8.964,29.282l-17.693,31.097
					c9.958-10.357,21.98-24.131,21.98-24.131s46.865,16.842,51.259,16.842c4.394,0,26.362-12.449,26.728-16.11
					C380.628,327.477,331.932,295.257,327.538,287.202z"/>
				<path style="fill:#92E3A9;stroke:#263238;stroke-linecap:round;stroke-linejoin:round;stroke-miterlimit:10;" d="
					M260.143,237.552c0,0-7.214-3.607-12.263,13.706c-5.05,17.313,7.935,62.759,14.427,63.48
					c6.492,0.721,20.198-33.183,22.362-43.282C286.834,261.357,280.341,231.06,260.143,237.552z"/>
			</g>
			<g>
				<g>
					<path style="fill:#FFFFFF;stroke:#263238;stroke-linecap:round;stroke-linejoin:round;stroke-miterlimit:10;" d="
						M282.503,275.119c0,0-3.743,3.186-9.153,7.323c-6.224,4.76-7.37,13.617-11.764,8.491c-4.394-5.126-10.937-41.078-6.909-48.4
						c4.027-7.323,19.039-17.208,20.137-17.941c1.098-0.732,11.35,12.815,12.082,22.701
						C287.629,257.178,282.503,275.119,282.503,275.119z"/>
					<path style="fill:#263238;stroke:#263238;stroke-linecap:round;stroke-linejoin:round;stroke-miterlimit:10;" d="
						M274.814,224.592c-1.098,0.732-16.11,10.618-20.137,17.941c-1.584,2.88-1.529,10.193-0.617,18.313
						c1.439,0.983,2.995,2.028,4.676,3.136c13.573,8.946,23.767,11.137,23.767,11.137l0.751-39.127
						C279.949,229.484,275.516,224.124,274.814,224.592z"/>
				</g>
				<g>
					<path style="fill:#FFFFFF;stroke:#263238;stroke-linecap:round;stroke-linejoin:round;stroke-miterlimit:10;" d="
						M339.987,234.112c0,0-10.252,17.574-15.378,26.362c-5.126,8.787-10.984,19.039-21.236,21.236
						c-10.252,2.197-20.137,3.661-25.63-5.126c-5.492-8.787-11.35-20.504-7.689-36.614c3.661-16.11,9.886-20.87,17.575-26.728
						s15.378-9.52,24.165-6.224C320.581,210.313,339.987,234.112,339.987,234.112z"/>
					<g>
						<g>
							<path style="fill:#263238;stroke:#263238;stroke-linecap:round;stroke-linejoin:round;stroke-miterlimit:10;" d="
								M308.872,243.161c-0.773,1.359-2.061,2.085-2.877,1.621c-0.815-0.464-0.85-1.942-0.076-3.301
								c0.773-1.359,2.062-2.085,2.877-1.621C309.611,240.323,309.646,241.801,308.872,243.161z"/>
							<path style="fill:#263238;stroke:#263238;stroke-linecap:round;stroke-linejoin:round;stroke-miterlimit:10;" d="
								M324.785,250.695c-0.773,1.359-2.061,2.085-2.877,1.621c-0.816-0.464-0.85-1.942-0.076-3.301
								c0.774-1.359,2.062-2.085,2.877-1.621C325.524,247.857,325.558,249.335,324.785,250.695z"/>
							
								<path style="fill:none;stroke:#263238;stroke-width:2;stroke-linecap:round;stroke-linejoin:round;stroke-miterlimit:10;" d="
								M304.397,232.194c0,0,5.389-1.328,10.595,2.502"/>
							
								<path style="fill:none;stroke:#263238;stroke-width:2;stroke-linecap:round;stroke-linejoin:round;stroke-miterlimit:10;" d="
								M324.508,240.112c0,0,7.451,0.389,7.129,5.794"/>
							<path style="fill:none;stroke:#263238;stroke-linecap:round;stroke-linejoin:round;stroke-miterlimit:10;" d="
								M296.257,259.223c0,0,2.025,6.365,11.678,9.251"/>
						</g>
						<path style="fill:none;stroke:#263238;stroke-linecap:round;stroke-linejoin:round;stroke-miterlimit:10;" d="
							M322.142,245.031l-2.265,5.286c0,0-4.976,12.51-5.886,14.184c-0.91,1.673-7.706-1.724-9.594-4.745"/>
					</g>
				</g>
				<path style="fill:#263238;stroke:#263238;stroke-linecap:round;stroke-linejoin:round;stroke-miterlimit:10;" d="
					M279.574,231.183c0,0,1.098,0,4.027-1.831c2.929-1.831,6.224,1.464,13.181-1.098c6.957-2.563-2.929-12.449,6.59-13.181
					c9.52-0.732,14.645,14.645,26.362,20.138c11.716,5.492,19.771,3.295,24.897-9.886c5.126-13.181-2.197-20.87-8.055-26.728
					c-5.858-5.858,0-6.957-1.831-16.11c-1.831-9.153-10.984-12.815-19.771-9.52c-8.787,3.295-6.59,5.858-11.35,5.858
					s-9.153-6.224-22.334-3.661c-13.181,2.563-23.433,16.476-24.897,29.657c-1.465,13.181,2.929,27.094,4.76,27.826
					C272.984,233.38,279.574,231.183,279.574,231.183z"/>
				<path style="fill:#FFFFFF;stroke:#263238;stroke-linecap:round;stroke-linejoin:round;stroke-miterlimit:10;" d="
					M279.587,235.96c0,0,3.624-11.238-0.215-14.575c-3.839-3.337-10.208-1.192-11.524,3.776c-1.315,4.968-3.382,13.892-1.205,16.169
					c2.177,2.276,6.407,1.589,6.407,1.589"/>
			</g>
		</g>
		<g>
			<path style="fill:#263238;stroke:#263238;stroke-linecap:round;stroke-linejoin:round;stroke-miterlimit:10;" d="
				M400.961,446.047l-15.742-57.826c-2.39-8.779-10.362-14.872-19.461-14.872h-62.93c-10.424,0-19.13,7.943-20.085,18.323l-5,54.375
				H400.961z"/>
			<g>
				<g>
					<g>
						<path style="fill:#92E3A9;stroke:#263238;stroke-linecap:round;stroke-linejoin:round;stroke-miterlimit:10;" d="
							M356.097,327.501c0,0-47.232,21.236-49.428,23.433c-2.197,2.197-15.744,95.114-15.744,95.114h162.931
							c0,0-25.263-98.043-28.559-100.24c-3.295-2.197-46.499-20.137-47.598-20.137C376.6,325.67,356.097,327.501,356.097,327.501z"
							/>
						<g>
							<path style="fill:#FFFFFF;stroke:#263238;stroke-linecap:round;stroke-linejoin:round;stroke-miterlimit:10;" d="
								M412.946,331.504c0,0,4.67,0.212,5.52,1.486c0.849,1.274,2.972,9.129,2.123,11.039c-0.849,1.911-2.76,0.212-4.034-2.123
								c-1.274-2.335-2.335-4.67-2.335-4.67l-2.335-1.698L412.946,331.504z"/>
							<path style="fill:#FFFFFF;stroke:#263238;stroke-linecap:round;stroke-linejoin:round;stroke-miterlimit:10;" d="
								M407.002,326.834c0,0,5.944,0.637,6.793,2.76c0.849,2.123,0.637,7.643-0.212,10.827c-0.849,3.184-2.335,5.307-3.609,4.246
								c-1.274-1.061-3.821-12.313-3.821-13.587S406.365,326.834,407.002,326.834z"/>
							<path style="fill:#FFFFFF;stroke:#263238;stroke-linecap:round;stroke-linejoin:round;stroke-miterlimit:10;" d="
								M402.756,323.862c0,0,5.52,1.486,6.581,2.972c1.061,1.486,1.061,9.766,0,12.95c-1.061,3.184-3.609,4.034-4.883,3.184
								c-1.274-0.849-2.548-6.157-2.548-8.704C401.907,331.716,402.756,323.862,402.756,323.862z"/>
							<g>
								<path style="fill:#FFFFFF;stroke:#263238;stroke-linecap:round;stroke-linejoin:round;stroke-miterlimit:10;" d="
									M395.739,322.937c0,0,5.607-2.157,7.332,0c1.725,2.157,0.863,18.547-0.431,20.272c-1.294,1.725-5.176,0-5.176-2.157
									c0-2.157-1.502-8.062-1.502-8.062l-6.693-2.72C389.27,330.27,392.72,322.937,395.739,322.937z"/>
								
									<line style="fill:#FFFFFF;stroke:#263238;stroke-linecap:round;stroke-linejoin:round;stroke-miterlimit:10;" x1="395.962" y1="332.99" x2="395.326" y2="327.895"/>
							</g>
						</g>
						<path style="fill:#FFFFFF;stroke:#263238;stroke-linecap:round;stroke-linejoin:round;stroke-miterlimit:10;" d="
							M353.468,329.119c0,0-7.126,1.425-7.601,7.126c-0.475,5.701,0.95,33.731,4.751,36.581c3.801,2.85,22.329-10.452,22.329-10.452
							s14.728,7.601,18.053,5.226c3.326-2.375,0.475-27.08-6.651-36.581S353.468,329.119,353.468,329.119z"/>
						
							<line style="fill:none;stroke:#263238;stroke-linecap:round;stroke-linejoin:round;stroke-miterlimit:10;" x1="324.344" y1="415.409" x2="331.558" y2="377.177"/>
					</g>
					<polyline style="fill:none;stroke:#263238;stroke-linecap:round;stroke-linejoin:round;stroke-miterlimit:10;" points="
						413.072,369.963 421.728,401.302 415.957,444.985 					"/>
				</g>
				
					<ellipse style="fill:#263238;stroke:#263238;stroke-linecap:round;stroke-linejoin:round;stroke-miterlimit:10;" cx="332.698" cy="301.557" rx="22.517" ry="21.419"/>
				<g>
					<path style="fill:none;stroke:#6E6E6E;stroke-linecap:round;stroke-linejoin:round;stroke-miterlimit:10;" d="M341.127,320.947
						c1.237-0.489,2.328-1.053,3.221-1.649"/>
					<path style="fill:none;stroke:#6E6E6E;stroke-linecap:round;stroke-linejoin:round;stroke-miterlimit:10;" d="M313.042,291.748
						c0,0-5.322,14.401,3.444,24.106c6.171,6.832,14.67,7.613,21.127,6.166"/>
				</g>
				<g>
					<path style="fill:#FFFFFF;stroke:#263238;stroke-linecap:round;stroke-linejoin:round;stroke-miterlimit:10;" d="
						M351.703,315.419c0,0-0.366,14.279-0.366,18.307s12.083,21.968,19.405,23.067c7.323,1.099,10.252-12.449,10.618-18.673
						c0.366-6.224,1.831-15.012,1.831-15.012S361.955,327.501,351.703,315.419z"/>
					<path style="fill:#263238;stroke:#263238;stroke-linecap:round;stroke-linejoin:round;stroke-miterlimit:10;" d="
						M378.428,329.168l-3.719-5.285c-7.079,0.057-16.955-1.333-23.006-8.465c0,0-0.236,9.218-0.329,14.93
						C368.383,333.942,378.428,329.168,378.428,329.168z"/>
				</g>
				<g>
					<path style="fill:#FFFFFF;stroke:#263238;stroke-linecap:round;stroke-linejoin:round;stroke-miterlimit:10;" d="
						M344.38,304.801c0,0,4.394,12.083,10.618,17.941c6.224,5.858,18.307,13.547,26.728,9.154
						c8.421-4.394,13.913-10.252,16.11-23.799c2.197-13.547,0-44.669,0-44.669s-1.098-6.59-12.815-8.787
						c-11.716-2.197-31.854,1.831-35.881,9.886c-4.028,8.055-5.126,18.673-5.126,25.263
						C344.014,296.379,344.38,304.801,344.38,304.801z"/>
					<g>
						
							<ellipse style="fill:#263238;stroke:#263238;stroke-linecap:round;stroke-linejoin:round;stroke-miterlimit:10;" cx="371.791" cy="292.405" rx="1.699" ry="2.832"/>
						<path style="fill:#263238;stroke:#263238;stroke-linecap:round;stroke-linejoin:round;stroke-miterlimit:10;" d="
							M391.046,291.084c0,1.564-0.761,2.832-1.699,2.832c-0.938,0-1.699-1.268-1.699-2.832s0.761-2.832,1.699-2.832
							C390.286,288.252,391.046,289.52,391.046,291.084z"/>
						<path style="fill:none;stroke:#263238;stroke-linecap:round;stroke-linejoin:round;stroke-miterlimit:10;" d="
							M366.694,286.176c0,0,1.51-4.908,7.929-4.153"/>
						<path style="fill:none;stroke:#263238;stroke-linecap:round;stroke-linejoin:round;stroke-miterlimit:10;" d="
							M385.572,282.022c0,0,3.775-5.286,9.061,1.51"/>
						<path style="fill:none;stroke:#263238;stroke-linecap:round;stroke-linejoin:round;stroke-miterlimit:10;" d="
							M385.572,292.971c0,0-1.51,4.153,0,6.041c1.51,1.888,2.265,5.663-0.378,6.419c-2.643,0.755-6.041,0.755-6.041,0.755"/>
						<path style="fill:none;stroke:#263238;stroke-linecap:round;stroke-linejoin:round;stroke-miterlimit:10;" d="
							M370.469,312.604c0,0,4.908,4.531,14.725,2.265"/>
					</g>
				</g>
				<path style="fill:#263238;stroke:#263238;stroke-linecap:round;stroke-linejoin:round;stroke-miterlimit:10;" d="
					M391.613,262.767l7.551,17.745c0,0,8.684-6.796,7.174-18.123c-1.51-11.327-7.929-12.082-7.929-12.082L391.613,262.767z"/>
				<path style="fill:#263238;stroke:#263238;stroke-linecap:round;stroke-linejoin:round;stroke-miterlimit:10;" d="
					M342.183,287.592c0,0,1.416,4.991,5.81,1.696c4.394-3.295,9.202-13.778,9.202-13.778s-5.858,7.689-2.197,9.886
					c3.661,2.197,19.039-1.831,35.881-18.307c16.842-16.476,13.547-25.996,5.492-32.586c-8.055-6.59-26.362,4.028-26.362,4.028
					s-12.815-4.028-28.925,5.492c-16.11,9.52-13.181,31.854-10.618,35.881C333.03,283.931,333.396,291.254,342.183,287.592z"/>
				<path style="fill:#FFFFFF;stroke:#263238;stroke-linecap:round;stroke-linejoin:round;stroke-miterlimit:10;" d="
					M346.165,291.586c0,0-2.929-9.153-7.689-8.787c-4.76,0.366-7.689,15.012-1.831,21.602c5.858,6.59,9.153,1.098,9.153,1.098"/>
				<path style="fill:#92E3A9;stroke:#263238;stroke-linecap:round;stroke-linejoin:round;stroke-miterlimit:10;" d="
					M343.575,303.972c0,1.302-1.055,2.357-2.357,2.357c-1.301,0-2.357-1.055-2.357-2.357s1.055-2.357,2.357-2.357
					C342.52,301.616,343.575,302.671,343.575,303.972z"/>
				<g>
					<g>
						<path style="fill:#FFFFFF;stroke:#263238;stroke-linecap:round;stroke-linejoin:round;stroke-miterlimit:10;" d="
							M391.246,360.819l10.984,23.799c0,0,41.74,24.531,44.303,25.63c2.563,1.098,9.52,7.689,10.618,16.476
							c1.098,8.787-4.027,13.913-10.252,13.913s-12.082-1.465-16.842-5.492c-4.76-4.027-36.614-43.57-36.614-43.57
							s-6.957-4.028-8.787-5.492c-1.831-1.465-3.661-5.492-3.661-5.492s-3.661,1.831-6.224,1.465
							c-2.563-0.366-6.59-8.787-6.59-8.787s4.027-13.181,5.126-15.012c1.098-1.831,10.984-2.197,10.984-2.197L391.246,360.819z"/>
						<polyline style="fill:none;stroke:#263238;stroke-linecap:round;stroke-linejoin:round;stroke-miterlimit:10;" points="
							376.234,376.93 380.262,375.465 380.994,377.296 380.994,380.591 						"/>
					</g>
					<path style="fill:#FFFFFF;stroke:#263238;stroke-linecap:round;stroke-linejoin:round;stroke-miterlimit:10;" d="
						M353.167,380.957l9.154-27.826c0,0,10.618-4.027,13.547-4.76c2.929-0.732,11.716,6.957,13.547,7.323
						c1.831,0.366,2.929,4.76,1.831,5.126c-1.099,0.366-4.76-1.464-4.76-1.464l-10.984,1.831c0,0-3.295,17.208-6.957,21.236
						c-3.661,4.027-9.886,8.055-9.886,8.055s-35.515,42.472-38.078,46.499c-2.563,4.027-15.012,11.35-23.799,6.224
						c-8.787-5.126-4.027-17.575-1.465-21.968C297.881,416.838,353.167,380.957,353.167,380.957z"/>
					<polyline style="fill:none;stroke:#263238;stroke-linecap:round;stroke-linejoin:round;stroke-miterlimit:10;" points="
						389.415,355.694 379.999,353.655 373.316,355.141 					"/>
					<polyline style="fill:none;stroke:#263238;stroke-linecap:round;stroke-linejoin:round;stroke-miterlimit:10;" points="
						369.339,352.557 379.257,350.685 382.227,351.056 					"/>
				</g>
			</g>
		</g>
		<g>
			<path style="fill:#7D7D7D;stroke:#263238;stroke-linecap:round;stroke-linejoin:round;stroke-miterlimit:10;" d="
				M238.355,255.411c0,0,6.59,17.574,5.492,35.149c-1.098,17.574,4.394,75.058,5.858,81.282c1.464,6.224,3.295,16.842,3.295,16.842
				s57.483,27.826,67.735,31.854s23.067,6.957,23.067,6.957s21.602-7.323,23.799-9.153c2.197-1.831,7.689,0.732,7.689,0.732
				s11.716,3.295,12.449,4.394c0.732,1.098,0.366,15.744,0.366,15.744s1.465,4.027,0.366,4.394
				c-1.099,0.366-13.181,3.295-17.209,2.197c-4.027-1.098-14.645-5.858-14.645-5.858s-8.055,2.929-12.082,2.197
				c-4.028-0.732-9.154-1.831-9.154-1.831s-68.101-10.984-86.408-15.378c-18.307-4.394-29.657-6.957-31.488-13.547
				c-1.831-6.591-20.504-87.507-21.236-91.9"/>
			<g>
				<g>
					<path style="fill:#263238;stroke:#263238;stroke-linecap:round;stroke-linejoin:round;stroke-miterlimit:10;" d="
						M392.291,446.047h-39.453v-6.041c0-4.582,3.715-8.297,8.297-8.297h22.859c4.582,0,8.297,3.715,8.297,8.297V446.047z"/>
					<path style="fill:#FFFFFF;stroke:#263238;stroke-linecap:round;stroke-linejoin:round;stroke-miterlimit:10;" d="
						M371.262,445.802c4.028,1.098,16.11-1.831,17.209-2.197c1.098-0.366-0.366-4.394-0.366-4.394s0.366-14.645-0.366-15.744
						c-0.732-1.099-12.449-4.394-12.449-4.394s-5.492-2.563-7.689-0.732c-2.197,1.831-23.799,9.153-23.799,9.153
						s-12.815-2.929-23.067-6.957c-3.623-1.423-13.147-5.82-23.946-10.909c-13.788,3.702-14.905,15.731-14.555,21.725
						c24.976,4.412,53.146,8.955,53.146,8.955s5.126,1.098,9.153,1.831c4.027,0.732,12.082-2.197,12.082-2.197
						S367.235,444.704,371.262,445.802z"/>
					<path style="fill:none;stroke:#263238;stroke-linecap:round;stroke-linejoin:round;stroke-miterlimit:10;" d="M374.924,422.736
						c0,0,6.224,7.323,8.421,10.252c2.197,2.929,4.76,6.224,4.76,6.224"/>
					<path style="fill:none;stroke:#263238;stroke-linecap:round;stroke-linejoin:round;stroke-miterlimit:10;" d="M365.771,424.933
						c0,0,9.52,9.886,12.082,11.716c2.563,1.831,5.858,8.055,5.858,8.055"/>
					<path style="fill:none;stroke:#263238;stroke-linecap:round;stroke-linejoin:round;stroke-miterlimit:10;" d="M358.082,431.157
						c0,0,12.082,8.787,13.547,9.886c1.465,1.098,4.76,4.76,4.76,4.76"/>
				</g>
				<path style="fill:#92E3A9;stroke:#263238;stroke-linecap:round;stroke-linejoin:round;stroke-miterlimit:10;" d="
					M305.058,413.505c-2.609-1.215-5.39-2.519-8.268-3.875c-13.788,3.702-14.905,15.731-14.555,21.725
					c3.272,0.578,6.599,1.158,9.911,1.73C293.371,422.171,300.708,416.152,305.058,413.505z"/>
			</g>
		</g>
	</g>
</g>
<g id="Device">
	<g>
		<path style="fill:#263238;stroke:#263238;stroke-linecap:round;stroke-linejoin:round;stroke-miterlimit:10;" d="M566.362,439.555
			H417.505c-3.245,0-5.875,2.63-5.875,5.875v0.617h154.732V439.555z"/>
		
			<rect x="472.224" y="439.555" style="fill:#FFFFFF;stroke:#263238;stroke-linecap:round;stroke-linejoin:round;stroke-miterlimit:10;" width="94.138" height="6.492"/>
		<polygon style="fill:#FFFFFF;stroke:#263238;stroke-linecap:round;stroke-linejoin:round;stroke-miterlimit:10;" points="
			576.641,366.517 482.503,366.517 472.224,439.014 566.362,439.014 		"/>
		<path style="fill:#263238;stroke:#263238;stroke-linecap:round;stroke-linejoin:round;stroke-miterlimit:10;" d="M566.362,439.014
			l9.026-63.655c-12.171,9.467-29.712,24.097-49.783,40.751c-15.367,12.751-28.203,19.416-37.658,22.903H566.362z"/>
		
			<ellipse style="fill:#FFFFFF;stroke:#263238;stroke-linecap:round;stroke-linejoin:round;stroke-miterlimit:10;" cx="526.687" cy="407.094" rx="9.017" ry="7.574"/>
	</g>
	<g>
		
			<line style="fill:none;stroke:#263238;stroke-linecap:round;stroke-linejoin:round;stroke-miterlimit:10;" x1="604" y1="446.047" x2="612.845" y2="446.047"/>
		
			<line style="fill:none;stroke:#263238;stroke-linecap:round;stroke-linejoin:round;stroke-miterlimit:10;" x1="68" y1="446.047" x2="597" y2="446.047"/>
	</g>
</g>
<g id="Window">
	<g>
		<g>
			<g>
				
					<ellipse transform="matrix(0.2034 -0.9791 0.9791 0.2034 241.6735 608.6783)" style="fill:#92E3A9;stroke:#263238;stroke-linecap:round;stroke-linejoin:round;stroke-miterlimit:10;" cx="494.881" cy="155.826" rx="16.791" ry="16.791"/>
				
					<line style="fill:none;stroke:#263238;stroke-linecap:round;stroke-linejoin:round;stroke-miterlimit:10;" x1="494.351" y1="153.882" x2="494.351" y2="218.571"/>
				
					<line style="fill:none;stroke:#263238;stroke-linecap:round;stroke-linejoin:round;stroke-miterlimit:10;" x1="494.351" y1="163.426" x2="503.895" y2="153.529"/>
				
					<line style="fill:none;stroke:#263238;stroke-linecap:round;stroke-linejoin:round;stroke-miterlimit:10;" x1="493.644" y1="168.375" x2="488.164" y2="162.896"/>
			</g>
			<g>
				
					<ellipse transform="matrix(0.9228 -0.3853 0.3853 0.9228 -31.7658 195.1102)" style="fill:#92E3A9;stroke:#263238;stroke-linecap:round;stroke-linejoin:round;stroke-miterlimit:10;" cx="470.935" cy="176.814" rx="11.214" ry="11.214"/>
				
					<line style="fill:none;stroke:#263238;stroke-linecap:round;stroke-linejoin:round;stroke-miterlimit:10;" x1="470.581" y1="175.515" x2="470.581" y2="218.718"/>
				
					<line style="fill:none;stroke:#263238;stroke-linecap:round;stroke-linejoin:round;stroke-miterlimit:10;" x1="470.581" y1="181.889" x2="476.955" y2="175.279"/>
				
					<line style="fill:none;stroke:#263238;stroke-linecap:round;stroke-linejoin:round;stroke-miterlimit:10;" x1="470.109" y1="185.195" x2="466.45" y2="181.535"/>
			</g>
			<g>
				
					<circle style="fill:#92E3A9;stroke:#263238;stroke-linecap:round;stroke-linejoin:round;stroke-miterlimit:10;" cx="578.897" cy="167.672" r="11.214"/>
				
					<line style="fill:none;stroke:#263238;stroke-linecap:round;stroke-linejoin:round;stroke-miterlimit:10;" x1="578.543" y1="166.374" x2="578.543" y2="209.577"/>
				
					<line style="fill:none;stroke:#263238;stroke-linecap:round;stroke-linejoin:round;stroke-miterlimit:10;" x1="578.543" y1="172.748" x2="584.917" y2="166.137"/>
				
					<line style="fill:none;stroke:#263238;stroke-linecap:round;stroke-linejoin:round;stroke-miterlimit:10;" x1="578.071" y1="176.053" x2="574.411" y2="172.394"/>
			</g>
			<g>
				<g>
					
						<rect x="471.552" y="194.66" style="fill:#FFFFFF;stroke:#263238;stroke-linecap:round;stroke-linejoin:round;stroke-miterlimit:10;" width="114.498" height="36.131"/>
					<polygon style="fill:#92E3A9;stroke:#263238;stroke-linecap:round;stroke-linejoin:round;stroke-miterlimit:10;" points="
						528.953,161.695 471.855,194.66 586.05,194.66 					"/>
				</g>
				
					<rect x="523.667" y="191.724" style="fill:#FFFFFF;stroke:#263238;stroke-linecap:round;stroke-linejoin:round;stroke-miterlimit:10;" width="28.334" height="39.067"/>
				
					<rect x="523.667" y="191.724" style="fill:#263238;stroke:#263238;stroke-linecap:round;stroke-linejoin:round;stroke-miterlimit:10;" width="28.334" height="1.661"/>
				<path style="fill:#263238;stroke:#263238;stroke-linecap:round;stroke-linejoin:round;stroke-miterlimit:10;" d="
					M544.909,230.791h-14.15v-24.42c0-3.908,3.168-7.075,7.075-7.075l0,0c3.908,0,7.075,3.168,7.075,7.075V230.791z"/>
				
					<rect x="463.331" y="200.989" style="fill:#FFFFFF;stroke:#263238;stroke-linecap:round;stroke-linejoin:round;stroke-miterlimit:10;" width="65.63" height="29.802"/>
				
					<rect x="463.331" y="200.989" style="fill:#263238;stroke:#263238;stroke-linecap:round;stroke-linejoin:round;stroke-miterlimit:10;" width="65.63" height="1.329"/>
				
					<rect x="470.553" y="203.447" style="fill:#92E3A9;stroke:#263238;stroke-linecap:round;stroke-linejoin:round;stroke-miterlimit:10;" width="51.187" height="27.344"/>
				<polygon style="fill:#92E3A9;stroke:#263238;stroke-linecap:round;stroke-linejoin:round;stroke-miterlimit:10;" points="
					496.146,179.186 461.316,199.296 530.977,199.296 				"/>
				
					<rect x="461.316" y="199.296" style="fill:#FFFFFF;stroke:#263238;stroke-linecap:round;stroke-linejoin:round;stroke-miterlimit:10;" width="69.661" height="1.693"/>
				<polygon style="fill:#92E3A9;stroke:#263238;stroke-linecap:round;stroke-linejoin:round;stroke-miterlimit:10;" points="
					537.833,180.385 519.795,190.799 555.871,190.799 				"/>
				
					<rect x="519.795" y="190.799" style="fill:#FFFFFF;stroke:#263238;stroke-linecap:round;stroke-linejoin:round;stroke-miterlimit:10;" width="36.076" height="1.672"/>
				<g>
					<g>
						
							<rect x="472.417" y="205.645" style="fill:#FFFFFF;stroke:#263238;stroke-width:0.5;stroke-linecap:round;stroke-linejoin:round;stroke-miterlimit:10;" width="4.145" height="4.145"/>
						
							<rect x="478.635" y="205.645" style="fill:#FFFFFF;stroke:#263238;stroke-width:0.5;stroke-linecap:round;stroke-linejoin:round;stroke-miterlimit:10;" width="4.145" height="4.145"/>
						
							<rect x="484.853" y="205.645" style="fill:#FFFFFF;stroke:#263238;stroke-width:0.5;stroke-linecap:round;stroke-linejoin:round;stroke-miterlimit:10;" width="4.145" height="4.145"/>
						
							<rect x="491.071" y="205.645" style="fill:#FFFFFF;stroke:#263238;stroke-width:0.5;stroke-linecap:round;stroke-linejoin:round;stroke-miterlimit:10;" width="4.145" height="4.145"/>
						
							<rect x="497.289" y="205.645" style="fill:#FFFFFF;stroke:#263238;stroke-width:0.5;stroke-linecap:round;stroke-linejoin:round;stroke-miterlimit:10;" width="4.145" height="4.145"/>
						
							<rect x="503.507" y="205.645" style="fill:#FFFFFF;stroke:#263238;stroke-width:0.5;stroke-linecap:round;stroke-linejoin:round;stroke-miterlimit:10;" width="4.145" height="4.145"/>
						
							<rect x="509.725" y="205.645" style="fill:#FFFFFF;stroke:#263238;stroke-width:0.5;stroke-linecap:round;stroke-linejoin:round;stroke-miterlimit:10;" width="4.145" height="4.145"/>
						
							<rect x="515.943" y="205.645" style="fill:#FFFFFF;stroke:#263238;stroke-width:0.5;stroke-linecap:round;stroke-linejoin:round;stroke-miterlimit:10;" width="4.145" height="4.145"/>
					</g>
					<g>
						
							<rect x="472.417" y="211.745" style="fill:#FFFFFF;stroke:#263238;stroke-width:0.5;stroke-linecap:round;stroke-linejoin:round;stroke-miterlimit:10;" width="4.145" height="4.145"/>
						
							<rect x="478.635" y="211.745" style="fill:#FFFFFF;stroke:#263238;stroke-width:0.5;stroke-linecap:round;stroke-linejoin:round;stroke-miterlimit:10;" width="4.145" height="4.145"/>
						
							<rect x="484.853" y="211.745" style="fill:#FFFFFF;stroke:#263238;stroke-width:0.5;stroke-linecap:round;stroke-linejoin:round;stroke-miterlimit:10;" width="4.145" height="4.145"/>
						
							<rect x="491.071" y="211.745" style="fill:#FFFFFF;stroke:#263238;stroke-width:0.5;stroke-linecap:round;stroke-linejoin:round;stroke-miterlimit:10;" width="4.145" height="4.145"/>
						
							<rect x="497.289" y="211.745" style="fill:#FFFFFF;stroke:#263238;stroke-width:0.5;stroke-linecap:round;stroke-linejoin:round;stroke-miterlimit:10;" width="4.145" height="4.145"/>
						
							<rect x="503.507" y="211.745" style="fill:#FFFFFF;stroke:#263238;stroke-width:0.5;stroke-linecap:round;stroke-linejoin:round;stroke-miterlimit:10;" width="4.145" height="4.145"/>
						
							<rect x="509.725" y="211.745" style="fill:#FFFFFF;stroke:#263238;stroke-width:0.5;stroke-linecap:round;stroke-linejoin:round;stroke-miterlimit:10;" width="4.145" height="4.145"/>
						
							<rect x="515.943" y="211.745" style="fill:#FFFFFF;stroke:#263238;stroke-width:0.5;stroke-linecap:round;stroke-linejoin:round;stroke-miterlimit:10;" width="4.145" height="4.145"/>
					</g>
					<g>
						
							<rect x="472.417" y="217.844" style="fill:#FFFFFF;stroke:#263238;stroke-width:0.5;stroke-linecap:round;stroke-linejoin:round;stroke-miterlimit:10;" width="4.145" height="4.145"/>
						
							<rect x="478.635" y="217.844" style="fill:#FFFFFF;stroke:#263238;stroke-width:0.5;stroke-linecap:round;stroke-linejoin:round;stroke-miterlimit:10;" width="4.145" height="4.145"/>
						
							<rect x="484.853" y="217.844" style="fill:#FFFFFF;stroke:#263238;stroke-width:0.5;stroke-linecap:round;stroke-linejoin:round;stroke-miterlimit:10;" width="4.145" height="4.145"/>
						
							<rect x="491.071" y="217.844" style="fill:#FFFFFF;stroke:#263238;stroke-width:0.5;stroke-linecap:round;stroke-linejoin:round;stroke-miterlimit:10;" width="4.145" height="4.145"/>
						
							<rect x="497.289" y="217.844" style="fill:#FFFFFF;stroke:#263238;stroke-width:0.5;stroke-linecap:round;stroke-linejoin:round;stroke-miterlimit:10;" width="4.145" height="4.145"/>
						
							<rect x="503.507" y="217.844" style="fill:#FFFFFF;stroke:#263238;stroke-width:0.5;stroke-linecap:round;stroke-linejoin:round;stroke-miterlimit:10;" width="4.145" height="4.145"/>
						
							<rect x="509.725" y="217.844" style="fill:#FFFFFF;stroke:#263238;stroke-width:0.5;stroke-linecap:round;stroke-linejoin:round;stroke-miterlimit:10;" width="4.145" height="4.145"/>
						
							<rect x="515.943" y="217.844" style="fill:#FFFFFF;stroke:#263238;stroke-width:0.5;stroke-linecap:round;stroke-linejoin:round;stroke-miterlimit:10;" width="4.145" height="4.145"/>
					</g>
					<g>
						
							<rect x="472.417" y="223.944" style="fill:#FFFFFF;stroke:#263238;stroke-width:0.5;stroke-linecap:round;stroke-linejoin:round;stroke-miterlimit:10;" width="4.145" height="4.145"/>
						
							<rect x="478.635" y="223.944" style="fill:#FFFFFF;stroke:#263238;stroke-width:0.5;stroke-linecap:round;stroke-linejoin:round;stroke-miterlimit:10;" width="4.145" height="4.145"/>
						
							<rect x="484.853" y="223.944" style="fill:#FFFFFF;stroke:#263238;stroke-width:0.5;stroke-linecap:round;stroke-linejoin:round;stroke-miterlimit:10;" width="4.145" height="4.145"/>
						
							<rect x="491.071" y="223.944" style="fill:#FFFFFF;stroke:#263238;stroke-width:0.5;stroke-linecap:round;stroke-linejoin:round;stroke-miterlimit:10;" width="4.145" height="4.145"/>
						
							<rect x="497.289" y="223.944" style="fill:#FFFFFF;stroke:#263238;stroke-width:0.5;stroke-linecap:round;stroke-linejoin:round;stroke-miterlimit:10;" width="4.145" height="4.145"/>
						
							<rect x="503.507" y="223.944" style="fill:#FFFFFF;stroke:#263238;stroke-width:0.5;stroke-linecap:round;stroke-linejoin:round;stroke-miterlimit:10;" width="4.145" height="4.145"/>
						
							<rect x="509.725" y="223.944" style="fill:#FFFFFF;stroke:#263238;stroke-width:0.5;stroke-linecap:round;stroke-linejoin:round;stroke-miterlimit:10;" width="4.145" height="4.145"/>
						
							<rect x="515.943" y="223.944" style="fill:#FFFFFF;stroke:#263238;stroke-width:0.5;stroke-linecap:round;stroke-linejoin:round;stroke-miterlimit:10;" width="4.145" height="4.145"/>
					</g>
				</g>
				<polygon style="fill:#FFFFFF;stroke:#263238;stroke-linecap:round;stroke-linejoin:round;stroke-miterlimit:10;" points="
					589.296,230.791 547.435,230.791 547.435,191.724 568.366,180.385 589.296,191.724 				"/>
				<g>
					<polygon style="fill:#FFFFFF;stroke:#263238;stroke-linecap:round;stroke-linejoin:round;stroke-miterlimit:10;" points="
						592.496,193.386 568.365,180.312 544.235,193.386 543.484,192 568.365,178.52 593.247,192 					"/>
				</g>
				<polygon style="fill:#263238;stroke:#263238;stroke-linecap:round;stroke-linejoin:round;stroke-miterlimit:10;" points="
					547.435,191.724 547.435,192.674 568.365,181.334 589.296,192.674 589.296,191.724 568.366,180.385 				"/>
				<g>
					
						<rect x="569.041" y="205.115" style="fill:#263238;stroke:#263238;stroke-linecap:round;stroke-linejoin:round;stroke-miterlimit:10;" width="7.024" height="4.882"/>
					
						<rect x="569.041" y="211.602" style="fill:#263238;stroke:#263238;stroke-linecap:round;stroke-linejoin:round;stroke-miterlimit:10;" width="7.024" height="4.882"/>
					
						<rect x="569.041" y="198.297" style="fill:#263238;stroke:#263238;stroke-linecap:round;stroke-linejoin:round;stroke-miterlimit:10;" width="7.024" height="5.212"/>
					
						<rect x="560.411" y="198.297" style="fill:#263238;stroke:#263238;stroke-linecap:round;stroke-linejoin:round;stroke-miterlimit:10;" width="7.024" height="5.212"/>
					
						<rect x="560.411" y="211.602" style="fill:#263238;stroke:#263238;stroke-linecap:round;stroke-linejoin:round;stroke-miterlimit:10;" width="7.024" height="4.882"/>
					
						<rect x="560.411" y="205.115" style="fill:#263238;stroke:#263238;stroke-linecap:round;stroke-linejoin:round;stroke-miterlimit:10;" width="7.024" height="4.882"/>
					
						<rect x="569.041" y="218.089" style="fill:#263238;stroke:#263238;stroke-linecap:round;stroke-linejoin:round;stroke-miterlimit:10;" width="7.024" height="4.491"/>
					
						<rect x="560.411" y="218.089" style="fill:#263238;stroke:#263238;stroke-linecap:round;stroke-linejoin:round;stroke-miterlimit:10;" width="7.024" height="4.491"/>
				</g>
			</g>
			<g>
				<path style="fill:#92E3A9;stroke:#263238;stroke-linecap:round;stroke-linejoin:round;stroke-miterlimit:10;" d="
					M562.915,279.038h-72.564c-3.866,0-7-3.134-7-7v-19.183c0-3.866,3.134-7,7-7h72.564c3.866,0,7,3.134,7,7v19.183
					C569.915,275.904,566.781,279.038,562.915,279.038z"/>
				<g>
					<path style="fill:#263238;" d="M509.207,255.804c2.038,0,3.086,1.219,3.086,3.353v0.42h-1.981v-0.553
						c0-0.952-0.382-1.315-1.048-1.315c-0.667,0-1.048,0.363-1.048,1.315c0,2.744,4.097,3.259,4.097,7.069
						c0,2.133-1.067,3.353-3.125,3.353c-2.058,0-3.125-1.219-3.125-3.353v-0.82h1.981v0.953c0,0.953,0.419,1.296,1.086,1.296
						s1.086-0.342,1.086-1.296c0-2.744-4.097-3.258-4.097-7.069C506.121,257.024,507.169,255.804,509.207,255.804z"/>
					<path style="fill:#263238;" d="M515.607,261.577h2.876v1.905h-2.876v3.907h3.62v1.905h-5.717v-13.337h5.717v1.905h-3.62
						V261.577z"/>
					<path style="fill:#263238;" d="M520.518,255.957h2.096v11.432h3.448v1.905h-5.544V255.957z"/>
					<path style="fill:#263238;" d="M529.071,261.577h2.876v1.905h-2.876v3.907h3.62v1.905h-5.717v-13.337h5.717v1.905h-3.62
						V261.577z"/>
					<path style="fill:#263238;" d="M540.061,264.321v1.772c0,2.133-1.067,3.353-3.125,3.353c-2.057,0-3.125-1.219-3.125-3.353
						v-6.936c0-2.133,1.067-3.353,3.125-3.353c2.057,0,3.125,1.219,3.125,3.353v1.296h-1.981v-1.429
						c0-0.952-0.419-1.315-1.086-1.315c-0.667,0-1.086,0.363-1.086,1.315v7.202c0,0.953,0.42,1.296,1.086,1.296
						c0.667,0,1.086-0.342,1.086-1.296v-1.905H540.061z"/>
					<path style="fill:#263238;" d="M540.725,255.957h6.479v1.905h-2.192v11.432h-2.095v-11.432h-2.192V255.957z"/>
				</g>
			</g>
			<g>
				<g>
					<path style="fill:#FFFFFF;stroke:#263238;stroke-linecap:round;stroke-linejoin:round;stroke-miterlimit:10;" d="
						M554.966,294.281c0,0-4.301-6.936-5.688-8.046c-1.387-1.11-4.717-0.971-5.272,1.387c-0.555,2.358,0.832,3.607,1.803,4.578
						c0.971,0.971,3.467,4.993,3.468,4.994c1.193,1.921,1.452,4.9,2.5,7.003c2.398,4.812,7.115,8.888,12.709,8.918
						c6.208,0.032,12.147-5.301,12.953-11.481c0.342-2.621,0.403-9.925,0.414-12.448c0.002-0.561-0.195-1.104-0.556-1.534
						c-0.952-1.13-2.592-1.384-3.841-0.595L573,287.345l-0.487-0.777c-0.373-0.595-0.886-1.109-1.525-1.402
						c-1.215-0.558-2.536-0.352-3.34,0.541l-0.475,0.528l-0.567-0.906c-1.219-1.473-3.857-1.612-4.982-0.065v-11.019
						c0-1.806-1.464-3.27-3.27-3.27c-1.798,0-3.259,1.452-3.27,3.25L554.966,294.281z"/>
					
						<line style="fill:#FFFFFF;stroke:#263238;stroke-linecap:round;stroke-linejoin:round;stroke-miterlimit:10;" x1="567.173" y1="286.235" x2="567.173" y2="292.617"/>
					
						<line style="fill:#FFFFFF;stroke:#263238;stroke-linecap:round;stroke-linejoin:round;stroke-miterlimit:10;" x1="573" y1="287.345" x2="573" y2="293.033"/>
					
						<line style="fill:#FFFFFF;stroke:#263238;stroke-linecap:round;stroke-linejoin:round;stroke-miterlimit:10;" x1="561.624" y1="285.264" x2="561.624" y2="291.784"/>
				</g>
				
					<line style="fill:none;stroke:#263238;stroke-linecap:round;stroke-linejoin:round;stroke-miterlimit:10;" x1="558.352" y1="262.117" x2="558.352" y2="268.601"/>
				
					<line style="fill:none;stroke:#263238;stroke-linecap:round;stroke-linejoin:round;stroke-miterlimit:10;" x1="563.59" y1="272.592" x2="569.077" y2="272.592"/>
				
					<line style="fill:none;stroke:#263238;stroke-linecap:round;stroke-linejoin:round;stroke-miterlimit:10;" x1="546.879" y1="272.592" x2="552.366" y2="272.592"/>
				
					<line style="fill:none;stroke:#263238;stroke-linecap:round;stroke-linejoin:round;stroke-miterlimit:10;" x1="562.343" y1="268.601" x2="564.587" y2="265.858"/>
				
					<line style="fill:none;stroke:#263238;stroke-linecap:round;stroke-linejoin:round;stroke-miterlimit:10;" x1="553.613" y1="268.601" x2="551.368" y2="265.858"/>
			</g>
			<path style="fill:none;stroke:#263238;stroke-linecap:round;stroke-linejoin:round;stroke-miterlimit:10;" d="M595.284,322.673
				H458.41c-4.234,0-7.667-3.432-7.667-7.667V122.587c0-4.234,3.432-7.667,7.667-7.667h136.874c4.234,0,7.667,3.432,7.667,7.667
				v192.419C602.951,319.241,599.519,322.673,595.284,322.673z"/>
			<path style="fill:#263238;stroke:#263238;stroke-linecap:round;stroke-linejoin:round;stroke-miterlimit:10;" d="
				M594.656,114.921H459.039c-4.582,0-8.296,3.714-8.296,8.296v1.803h152.207v-1.803
				C602.951,118.635,599.237,114.921,594.656,114.921z"/>
			
				<circle style="fill:#FFFFFF;stroke:#263238;stroke-linecap:round;stroke-linejoin:round;stroke-miterlimit:10;" cx="579.87" cy="119.771" r="2.337"/>
			
				<circle style="fill:#FFFFFF;stroke:#263238;stroke-linecap:round;stroke-linejoin:round;stroke-miterlimit:10;" cx="588.534" cy="119.771" r="2.337"/>
		</g>
		
			<line style="fill:none;stroke:#263238;stroke-linecap:round;stroke-linejoin:round;stroke-miterlimit:10;" x1="530.938" y1="323.395" x2="530.938" y2="366.676"/>
	</g>
</g>
</svg>
