<?xml version="1.0" encoding="iso-8859-1"?>
<!-- Uploaded to: SVG Repo, www.svgrepo.com, Generator: SVG Repo Mixer Tools -->
<svg version="1.1" id="Layer_1" xmlns="http://www.w3.org/2000/svg" xmlns:xlink="http://www.w3.org/1999/xlink" 
	 viewBox="0 0 512 512" xml:space="preserve">
<g>
	<polygon style="fill:#BCBEC0;" points="323.918,10.449 323.918,41.796 297.796,41.796 214.204,41.796 188.082,41.796 
		188.082,10.449 	"/>
	<rect x="339.592" y="459.755" style="fill:#BCBEC0;" width="41.796" height="41.796"/>
	<rect x="130.612" y="459.755" style="fill:#BCBEC0;" width="41.796" height="41.796"/>
</g>
<path style="fill:#31C0D8;" d="M318.694,318.694h62.694v73.143c0,11.49-9.408,20.898-20.898,20.898H151.51
	c-11.495,0-20.898-9.408-20.898-20.898v-73.143H318.694z"/>
<path style="fill:#F4661E;" d="M73.143,219.429v99.265v141.061h57.469h41.796h167.184h41.796h57.469V318.694v-99.265H73.143z
	 M381.388,391.837c0,11.49-9.408,20.898-20.898,20.898H151.51c-11.495,0-20.898-9.408-20.898-20.898v-73.143h188.082h62.694V391.837
	z"/>
<path style="fill:#FFD248;" d="M438.857,156.735v62.694H73.143v-62.694c0-23.092,18.704-41.796,41.796-41.796h99.265h83.592h99.265
	C420.153,114.939,438.857,133.642,438.857,156.735z"/>
<g>
	<path style="fill:#231F20;" d="M104.49,329.143h15.673v62.694c0,17.285,14.062,31.347,31.347,31.347h208.98
		c17.285,0,31.347-14.062,31.347-31.347v-62.694h15.673v-20.898H104.49V329.143z M370.939,391.837
		c0,5.762-4.687,10.449-10.449,10.449H151.51c-5.762,0-10.449-4.687-10.449-10.449v-62.694h167.184v31.347h20.898v-31.347h41.796
		V391.837z"/>
	<rect x="240.327" y="146.286" style="fill:#231F20;" width="31.347" height="20.898"/>
	<rect x="282.122" y="146.286" style="fill:#231F20;" width="15.673" height="20.898"/>
	<rect x="214.204" y="146.286" style="fill:#231F20;" width="15.673" height="20.898"/>
	<path style="fill:#231F20;" d="M397.061,104.49h-88.816V52.245h15.673c5.771,0,10.449-4.678,10.449-10.449V10.449
		C334.367,4.678,329.689,0,323.918,0H188.082c-5.771,0-10.449,4.678-10.449,10.449v31.347c0,5.771,4.678,10.449,10.449,10.449
		h15.673v52.245h-88.816c-28.808,0-52.245,23.437-52.245,52.245v62.694v240.327c0,5.771,4.678,10.449,10.449,10.449h47.02v31.347
		c0,5.771,4.678,10.449,10.449,10.449h41.796c5.771,0,10.449-4.678,10.449-10.449v-31.347h146.286v31.347
		c0,5.771,4.678,10.449,10.449,10.449h41.796c5.771,0,10.449-4.678,10.449-10.449v-31.347h47.02c5.771,0,10.449-4.678,10.449-10.449
		V219.429v-62.694C449.306,127.927,425.869,104.49,397.061,104.49z M198.531,20.898h114.939v10.449H198.531V20.898z M224.653,52.245
		h62.694v52.245h-62.694V52.245z M83.592,156.735c0-17.285,14.062-31.347,31.347-31.347h282.122
		c17.285,0,31.347,14.062,31.347,31.347v52.245H83.592V156.735z M161.959,491.102h-20.898v-20.898h20.898V491.102z M370.939,491.102
		h-20.898v-20.898h20.898V491.102z M83.592,449.306V229.878h344.816v219.429H83.592z"/>
</g>
</svg>